<svg width="1200" height="630" viewBox="0 0 1200 630" fill="none" xmlns="http://www.w3.org/2000/svg">
  <defs>
    <linearGradient id="bg" x1="0" y1="0" x2="1200" y2="630" gradientUnits="userSpaceOnUse">
      <stop stop-color="#080a10"/>
      <stop offset="1" stop-color="#111520"/>
    </linearGradient>
    <linearGradient id="line" x1="0" y1="0" x2="1" y2="1">
      <stop stop-color="#5de4c7"/>
      <stop offset="1" stop-color="#89ddff"/>
    </linearGradient>
  </defs>

  <rect width="1200" height="630" fill="url(#bg)"/>

  <g opacity="0.18">
    <path d="M0 520H1200" stroke="#2a3050"/>
    <path d="M0 420H1200" stroke="#2a3050"/>
    <path d="M0 320H1200" stroke="#2a3050"/>
    <path d="M0 220H1200" stroke="#2a3050"/>
    <path d="M0 120H1200" stroke="#2a3050"/>
    <path d="M180 0V630" stroke="#2a3050"/>
    <path d="M360 0V630" stroke="#2a3050"/>
    <path d="M540 0V630" stroke="#2a3050"/>
    <path d="M720 0V630" stroke="#2a3050"/>
    <path d="M900 0V630" stroke="#2a3050"/>
  </g>

  

  <g transform="translate(92 88)">
    
<svg x="0" y="0"
  
  xmlns="http://www.w3.org/2000/svg"
  width="160"
  height="160"
  viewBox="0 0 24 24"
  fill="none"
  stroke="#5de4c7"
  stroke-width="2"
  stroke-linecap="round"
  stroke-linejoin="round"
>
  <path d="M16 7h6v6" />
  <path d="m22 7-8.5 8.5-5-5L2 17" />
</svg>

  </g>

  <text x="92" y="320" fill="#ccd6f6" font-size="76" font-weight="700" font-family="Inter, Arial, sans-serif">
    Trading Lab
  </text>

  <text x="92" y="382" fill="#8892b0" font-size="30" font-family="Inter, Arial, sans-serif">
    Backtest pipeline and strategy ranking console
  </text>

  <rect x="92" y="456" width="246" height="46" rx="23" fill="#5de4c71a" stroke="#5de4c755"/>
  <text x="120" y="486" fill="#5de4c7" font-size="24" font-weight="600" font-family="Inter, Arial, sans-serif">
    LIVE DEMO
  </text>

  <text x="92" y="574" fill="#5a6a94" font-size="24" font-family="Inter, Arial, sans-serif">
    trading-lab.pages.dev
  </text>
</svg>